<svg xmlns="http://www.w3.org/2000/svg" viewBox="0 0 1505.52 457.84"><g id="Calque_2" data-name="Calque 2"><g id="Layer_1" data-name="Layer 1"><path d="M1447.33,10a48.25,48.25,0,0,1,48.19,48.19V399.65a48.25,48.25,0,0,1-48.19,48.19H58.19A48.25,48.25,0,0,1,10,399.65V58.19A48.25,48.25,0,0,1,58.19,10H1447.33m0-10H58.19A58.19,58.19,0,0,0,0,58.19V399.65a58.19,58.19,0,0,0,58.19,58.19H1447.33a58.19,58.19,0,0,0,58.19-58.19V58.19A58.19,58.19,0,0,0,1447.33,0Z"/><path d="M158.52,187.07c-24.42,42.38-8.9,106.7,18.11,145.7,13.48,19.49,27.13,37,45.82,37l1.07,0c8.78-.35,15.13-3.05,21.27-5.66,6.89-2.94,14-6,25.19-6,10.63,0,17.42,2.94,24,5.78s13.13,5.7,23,5.51c21.06-.39,34-19.28,45.4-35.94a159.44,159.44,0,0,0,19.89-40.74l.08-.25a2.38,2.38,0,0,0-1.26-2.91l-.17-.07c-3.71-1.52-36.24-16-36.58-55.28-.32-31.95,24.4-48.87,29.36-51.94l.23-.15a2.34,2.34,0,0,0,1-1.51,2.36,2.36,0,0,0-.36-1.81c-17.06-25-43.21-28.73-53.75-29.18a45,45,0,0,0-4.68-.23c-12.37,0-24.21,4.67-33.73,8.42-6.57,2.59-12.25,4.83-16.16,4.83-4.4,0-10.1-2.27-16.71-4.89-8.84-3.5-18.86-7.48-29.46-7.48h-.74C194.66,150.63,171.36,164.74,158.52,187.07Z"/><path d="M320.83,80.88c-14.93.61-32.84,9.8-43.54,22.34-9.11,10.53-18,28.11-15.65,45.82a2.37,2.37,0,0,0,2.16,2.05c1,.08,2,.12,3.06.12,14.6,0,30.35-8.08,41.11-21.08C319.29,116.4,325,98.77,323.28,83A2.39,2.39,0,0,0,320.83,80.88Z"/><path d="M492.61,90h28.32a41.35,41.35,0,0,1,19.77,4.6,33.73,33.73,0,0,1,13.45,12.72,37.86,37.86,0,0,1,0,36.9,33.69,33.69,0,0,1-13.45,12.73,41.47,41.47,0,0,1-19.77,4.6H492.61Zm27.91,66.84A37.4,37.4,0,0,0,538,152.9a28.17,28.17,0,0,0,11.65-11,33.93,33.93,0,0,0,0-32.3,28.15,28.15,0,0,0-11.65-11,37.28,37.28,0,0,0-17.48-3.94H497.83v62.14Z"/><path d="M582.61,158.47a25.07,25.07,0,0,1-9.56-9.66,29.78,29.78,0,0,1,0-27.9,25.07,25.07,0,0,1,9.56-9.66,28.49,28.49,0,0,1,27.29,0,25.14,25.14,0,0,1,9.56,9.66,29.78,29.78,0,0,1,0,27.9,25.14,25.14,0,0,1-9.56,9.66,28.49,28.49,0,0,1-27.29,0Zm24.63-4a20.5,20.5,0,0,0,7.67-8,25.55,25.55,0,0,0,0-23.3,20.5,20.5,0,0,0-7.67-8,22.46,22.46,0,0,0-22,0,20.43,20.43,0,0,0-7.67,8,25.55,25.55,0,0,0,0,23.3,20.43,20.43,0,0,0,7.67,8,22.46,22.46,0,0,0,22,0Z"/><path d="M713.49,108.18l-20.24,53.36h-4.8l-18-46.3-18.09,46.3h-4.7l-20.24-53.36h4.9l17.79,47.63,18.19-47.63h4.4l18.09,47.53,18-47.53Z"/><path d="M767.25,113.6q5.84,5.82,5.83,16.76v31.18H768V130.77q0-9-4.55-13.7t-12.73-4.7q-9.41,0-14.82,5.63t-5.41,15.12v28.42h-5.11V108.18h4.9v11.55a20.36,20.36,0,0,1,8.23-8.79,25.34,25.34,0,0,1,12.93-3.17Q761.43,107.77,767.25,113.6Z"/><path d="M794.13,85.7h5.11v75.84h-5.11Z"/><path d="M828,158.47a25,25,0,0,1-9.55-9.66,29.7,29.7,0,0,1,0-27.9,25,25,0,0,1,9.55-9.66,28.49,28.49,0,0,1,27.29,0,25.07,25.07,0,0,1,9.56,9.66,29.78,29.78,0,0,1,0,27.9,25.07,25.07,0,0,1-9.56,9.66,28.49,28.49,0,0,1-27.29,0Zm24.64-4a20.47,20.47,0,0,0,7.66-8,25.55,25.55,0,0,0,0-23.3,20.47,20.47,0,0,0-7.66-8,22.48,22.48,0,0,0-22,0,20.5,20.5,0,0,0-7.67,8,25.55,25.55,0,0,0,0,23.3,20.5,20.5,0,0,0,7.67,8,22.48,22.48,0,0,0,22,0Z"/><path d="M917.19,112.83q5.31,5.07,5.32,14.88v33.83H917.6V152a17.72,17.72,0,0,1-7.46,7.31A24.72,24.72,0,0,1,898.38,162q-8.88,0-14-4.2a14.5,14.5,0,0,1-.41-21.82q4.76-4.14,15.18-4.14h18.3V127.5q0-7.45-4-11.34t-11.81-3.89a28.41,28.41,0,0,0-10.17,1.84,25.42,25.42,0,0,0-8.22,4.91l-2.56-3.68a28.35,28.35,0,0,1,9.61-5.57,34.82,34.82,0,0,1,11.75-2Q911.88,107.77,917.19,112.83Zm-6.8,41.86a18.72,18.72,0,0,0,7-8.89v-10H899.2q-7.87,0-11.39,2.86a9.59,9.59,0,0,0-3.53,7.87,9.85,9.85,0,0,0,3.88,8.23q3.89,3,10.94,3A20.08,20.08,0,0,0,910.39,154.69Z"/><path d="M991.09,85.7v75.84h-5V149a22.92,22.92,0,0,1-8.89,9.61,25.1,25.1,0,0,1-13,3.38,26.52,26.52,0,0,1-13.5-3.48,24.86,24.86,0,0,1-9.45-9.61,30.47,30.47,0,0,1,0-28.05,24.34,24.34,0,0,1,9.45-9.61,26.89,26.89,0,0,1,13.5-3.43A24.6,24.6,0,0,1,977,111.15a24.12,24.12,0,0,1,9,9.4V85.7ZM975.5,154.48a20.5,20.5,0,0,0,7.67-8,25.55,25.55,0,0,0,0-23.3,20.5,20.5,0,0,0-7.67-8,22.48,22.48,0,0,0-22,0,20.47,20.47,0,0,0-7.66,8,25.55,25.55,0,0,0,0,23.3,20.47,20.47,0,0,0,7.66,8,22.48,22.48,0,0,0,22,0Z"/><path d="M1046.13,158.47a25,25,0,0,1-9.56-9.66,29.7,29.7,0,0,1,0-27.9,25,25,0,0,1,9.56-9.66,28.49,28.49,0,0,1,27.29,0,25.11,25.11,0,0,1,9.55,9.66,29.7,29.7,0,0,1,0,27.9,25.11,25.11,0,0,1-9.55,9.66,28.49,28.49,0,0,1-27.29,0Zm24.63-4a20.47,20.47,0,0,0,7.66-8,25.55,25.55,0,0,0,0-23.3,20.47,20.47,0,0,0-7.66-8,22.48,22.48,0,0,0-22,0,20.47,20.47,0,0,0-7.66,8,25.55,25.55,0,0,0,0,23.3,20.47,20.47,0,0,0,7.66,8,22.48,22.48,0,0,0,22,0Z"/><path d="M1144.2,113.6q5.82,5.82,5.82,16.76v31.18h-5.11V130.77q0-9-4.55-13.7t-12.72-4.7q-9.41,0-14.82,5.63t-5.42,15.12v28.42h-5.11V108.18h4.91v11.55a20.33,20.33,0,0,1,8.22-8.79,25.39,25.39,0,0,1,12.93-3.17Q1138.37,107.77,1144.2,113.6Z"/><path d="M1223.81,158.16A12.66,12.66,0,0,1,1219,161a19,19,0,0,1-6.08,1q-7,0-10.73-3.84t-3.79-10.68V112.58h-9.81v-4.4h9.81V96.53h5.11v11.65h17v4.4h-17v34.34q0,5.22,2.51,7.92t7.41,2.71a11.88,11.88,0,0,0,8.28-3Z"/><path d="M1279.93,113.6q5.82,5.82,5.82,16.76v31.18h-5.11V130.77q0-9-4.55-13.7t-12.72-4.7q-9.4,0-14.82,5.63t-5.42,15.12v28.42H1238V85.7h5.11v33.62a19.59,19.59,0,0,1,8.18-8.53,25.85,25.85,0,0,1,12.77-3Q1274.1,107.77,1279.93,113.6Z"/><path d="M1352,136.09h-45.89a22.33,22.33,0,0,0,3.17,11.09,20.34,20.34,0,0,0,8,7.51,25.64,25.64,0,0,0,21.06.76,18.79,18.79,0,0,0,7.41-5.57l3,3.38a22.77,22.77,0,0,1-8.74,6.44,30.4,30.4,0,0,1-25.6-1.23,25.18,25.18,0,0,1-9.76-9.61,27.58,27.58,0,0,1-3.53-14,29,29,0,0,1,3.32-14,24.61,24.61,0,0,1,9.15-9.66,26.41,26.41,0,0,1,26.12,0,24.31,24.31,0,0,1,9.09,9.55,28.69,28.69,0,0,1,3.33,13.91Zm-35.46-21.32a19.22,19.22,0,0,0-7.21,7.06,22.86,22.86,0,0,0-3.12,10.27h40.89a21.45,21.45,0,0,0-3.07-10.22,19.88,19.88,0,0,0-17.37-9.61A20.52,20.52,0,0,0,1316.52,114.77Z"/><path d="M568.29,319.7H507.15l-12,28.3H471.69l55-122.27h22.35L604.27,348H580.51Zm-7.51-17.81-23.06-53.45-22.88,53.45Z"/><path d="M693.78,259.62a42.88,42.88,0,0,1,16.86,16.77q6.11,10.83,6.11,25a50.48,50.48,0,0,1-6.11,25.07,42.63,42.63,0,0,1-16.86,16.85,49.48,49.48,0,0,1-24.36,5.94q-18.87,0-29.87-12.57v45.24H617.72V254.73H638.5V267a33.7,33.7,0,0,1,13.36-10,45.18,45.18,0,0,1,17.56-3.32A49.48,49.48,0,0,1,693.78,259.62Zm-7,62.88q7.77-8,7.77-21.14t-7.77-21.13q-7.78-8-19.83-8a28.09,28.09,0,0,0-14.15,3.59,25.81,25.81,0,0,0-10,10.21,34,34,0,0,0,0,30.75,25.81,25.81,0,0,0,10,10.21A28.08,28.08,0,0,0,667,330.53Q679,330.53,686.8,322.5Z"/><path d="M813.6,259.62a42.88,42.88,0,0,1,16.86,16.77q6.1,10.83,6.11,25a50.48,50.48,0,0,1-6.11,25.07,42.63,42.63,0,0,1-16.86,16.85,49.48,49.48,0,0,1-24.36,5.94q-18.87,0-29.87-12.57v45.24H737.54V254.73h20.78V267a33.7,33.7,0,0,1,13.36-10,45.18,45.18,0,0,1,17.56-3.32A49.48,49.48,0,0,1,813.6,259.62Zm-7,62.88q7.77-8,7.77-21.14t-7.77-21.13q-7.79-8-19.83-8a28.09,28.09,0,0,0-14.15,3.59A25.81,25.81,0,0,0,762.69,286a34,34,0,0,0,0,30.75A25.81,25.81,0,0,0,772.64,327a28.08,28.08,0,0,0,14.15,3.58Q798.85,330.53,806.62,322.5Z"/><path d="M918.22,345.73q-13.19-4-20.87-10.65l7.86-17.65a61.85,61.85,0,0,0,18.43,9.7,67,67,0,0,0,21.92,3.75q13.62,0,20.35-4.36T972.63,315a11.18,11.18,0,0,0-3.75-8.65,26.43,26.43,0,0,0-9.52-5.32q-5.76-1.92-15.72-4.37A182.76,182.76,0,0,1,921,290a37.27,37.27,0,0,1-14.85-10.39q-6.2-7.08-6.2-19.13a32.67,32.67,0,0,1,5.5-18.42q5.5-8.3,16.6-13.19T949.23,224a88,88,0,0,1,22,2.79,61,61,0,0,1,18.69,8l-7.17,17.64A70.26,70.26,0,0,0,966,245.3a62.8,62.8,0,0,0-17-2.45q-13.44,0-20,4.54t-6.55,12.05a10.87,10.87,0,0,0,3.76,8.56,27,27,0,0,0,9.52,5.24q5.76,1.93,15.72,4.37a166.62,166.62,0,0,1,22.36,6.55,38.33,38.33,0,0,1,14.93,10.39q6.19,7,6.2,18.87a32.22,32.22,0,0,1-5.5,18.34q-5.5,8.21-16.68,13.1t-27.25,4.89A93.3,93.3,0,0,1,918.22,345.73Z"/><path d="M1071.49,342.94a25.77,25.77,0,0,1-9.34,4.71,42,42,0,0,1-11.62,1.57q-15.36,0-23.75-8t-8.38-23.41V272.89H1003V255.43h15.38V234.12h21.83v21.31h25v17.46h-25v44.37q0,6.81,3.32,10.39t9.6,3.58a19.2,19.2,0,0,0,12.23-3.84Z"/><path d="M1102.76,343.11a44.52,44.52,0,0,1-17.73-17,51,51,0,0,1,0-49.34,44.8,44.8,0,0,1,17.73-16.95,56.64,56.64,0,0,1,51.18,0,44.8,44.8,0,0,1,17.73,16.95,51,51,0,0,1,0,49.34,44.52,44.52,0,0,1-17.73,17,56.64,56.64,0,0,1-51.18,0Zm45.41-20.61q7.86-8,7.86-21.14t-7.86-21.13q-7.86-8-19.91-8t-19.82,8q-7.79,8-7.78,21.13t7.78,21.14q7.77,8,19.82,8T1148.17,322.5Z"/><path d="M1253,253.68v20.79a27.66,27.66,0,0,0-5.06-.53q-12.75,0-19.91,7.43t-7.17,21.39V348H1199V254.73h20.79v13.62Q1229.21,253.68,1253,253.68Z"/><path d="M1358,308.35h-73.19a25.33,25.33,0,0,0,10,16.33q8.12,6,20.17,6,15.38,0,25.33-10.13L1352,334a39.38,39.38,0,0,1-15.89,11.35,58,58,0,0,1-21.66,3.84q-15.37,0-27.08-6.11a43.91,43.91,0,0,1-18.07-17,48,48,0,0,1-6.38-24.72,48.85,48.85,0,0,1,6.2-24.54,44,44,0,0,1,17.21-17,50.23,50.23,0,0,1,24.8-6.11,48.89,48.89,0,0,1,24.36,6,42.58,42.58,0,0,1,16.77,16.94q6,10.92,6,25.24C1358.3,303.4,1358.18,305.56,1358,308.35Zm-64.54-31a26.08,26.08,0,0,0-8.82,16.5h52.92a25.69,25.69,0,0,0-8.56-16.41q-7.15-6.3-17.81-6.29A26.35,26.35,0,0,0,1293.41,277.35Z"/></g></g></svg>