<svg xmlns="http://www.w3.org/2000/svg" viewBox="0 0 218.12 69.18"><defs><style>.cls-1{fill:#e30613;}.cls-2,.cls-3,.cls-4{fill:none;stroke:#fff;stroke-width:2px;}.cls-2,.cls-4{stroke-miterlimit:10;}.cls-3,.cls-4{stroke-linecap:round;}.cls-3{stroke-linejoin:round;}.cls-5{fill:#fff;}</style></defs><g id="Calque_2" data-name="Calque 2"><g id="Calque_1-2" data-name="Calque 1"><path class="cls-1" d="M18.35,16.92a.72.72,0,0,1-.72-.72C17.63,6.7,23.9,0,33.12,0,42.55,0,48,6.84,48,16.2c0,4.68-2.59,9.51-6.77,13.47a19.49,19.49,0,0,0-5.69,10.22c-.07.87-.57,1.15-1,1.15h-9a1.24,1.24,0,0,1-1-1.22c0-5.69,1.08-11.16,4.25-15,3.38-4.18,4.6-6.77,4.6-8.57,0-1.15-.43-1.94-1.22-1.94-1,0-1.66,1.08-1.95,2.3a1,1,0,0,1-1.08.87ZM35.13,53.21a.79.79,0,0,1-.79.79H25.55a.86.86,0,0,1-.72-.86V44.21a.93.93,0,0,1,.72-.79h8.86a.66.66,0,0,1,.72.58Z"/><path class="cls-2" d="M41,54.94H18.59a5.27,5.27,0,0,1-5.13-5.29l-1.12-6.23L10.47,31.9H49.74L46.16,49.81C45.07,53.39,43.85,54.94,41,54.94Z"/><line class="cls-2" x1="12.83" y1="43.42" x2="47.24" y2="43.42"/><line class="cls-2" x1="20.77" y1="31.9" x2="23.11" y2="54.94"/><line class="cls-2" x1="40.08" y1="31.9" x2="36.5" y2="54.94"/><line class="cls-3" x1="8.78" y1="21.02" x2="15.02" y2="61.17"/><line class="cls-3" x1="15.2" y1="61.26" x2="40.55" y2="61.26"/><line class="cls-4" x1="1" y1="20.69" x2="8.78" y2="20.69"/><circle class="cls-3" cx="40.55" cy="64.72" r="3.46"/><circle class="cls-3" cx="15.57" cy="64.72" r="3.46"/><path class="cls-5" d="M63.83,33c5.64,0,8.93,2.91,8.93,8.55,0,3.74-1.47,6.28-4.08,7.58l3.77,3.82H66.13l-2.54-2.86c-5.5-.1-8.67-3-8.67-8.54S58.19,33,63.83,33Zm0,4c-2.33,0-3.48,1.56-3.48,3.82v1.53c0,2.26,1.15,3.82,3.48,3.82s3.5-1.56,3.5-3.82V40.75C67.33,38.49,66.16,36.93,63.83,36.93Z"/><path class="cls-5" d="M84.47,49.77l-.31-1.92a5.61,5.61,0,0,1-4.52,2.21c-3,0-4.41-1.75-4.41-4.75V37.1H80v7.63a1.58,1.58,0,0,0,1.61,1.8,1.94,1.94,0,0,0,2-2V37.1h4.78V49.77Z"/><path class="cls-5" d="M105,43.44v.81H95.48C95.48,46,96.2,47,98,47s2.33-.81,2.33-1.85H105c0,3-2.31,4.9-6.87,4.9S90.71,48,90.71,43.44s2.81-6.63,7.13-6.63C102.4,36.81,105,38.88,105,43.44ZM95.51,42h4.65A2,2,0,0,0,98,39.86,2.24,2.24,0,0,0,95.51,42Zm0-6.44,2.23-3.19h4.61l0,.1L98.6,35.56Z"/><path class="cls-5" d="M109.28,41.83H107l1.71-4.37H107v-4.2h4.47v4Z"/><path class="cls-5" d="M121.26,45.81h7.85v4h-16v-1.7l7.66-10.85h-7.09v-4h15.25V35Z"/><path class="cls-5" d="M144.11,40.94v4.94c0,.53.24.94.77.94h.86v2.76a5.66,5.66,0,0,1-2.5.48c-1.92,0-3.09-.62-3.52-1.58A7.13,7.13,0,0,1,135,50.06c-2.64,0-4.47-.91-4.47-3.55,0-3.79,3.22-4.51,8.76-4.51v-.63c0-1-.81-1.51-1.85-1.51-.84,0-1.82.26-1.82,1.1v.1H131a1.31,1.31,0,0,1,0-.34c0-2.32,2.28-3.91,6.63-3.91C141,36.81,144.11,37.82,144.11,40.94Zm-8.76,4.94c0,1,.81,1.2,1.63,1.2,1.22,0,2.35-.72,2.35-1.75V44.25C136.5,44.25,135.35,45,135.35,45.88Z"/><path class="cls-5" d="M149.29,41.83H147l1.71-4.37H147v-4.2h4.47v4Z"/><path class="cls-5" d="M162.52,33c5.64,0,8.92,2.91,8.92,8.55,0,3.74-1.46,6.28-4.08,7.58l3.77,3.82h-6.31l-2.54-2.86c-5.5-.1-8.67-3-8.67-8.54S156.88,33,162.52,33Zm0,4c-2.33,0-3.48,1.56-3.48,3.82v1.53c0,2.26,1.15,3.82,3.48,3.82s3.5-1.56,3.5-3.82V40.75C166,38.49,164.84,36.93,162.52,36.93Z"/><path class="cls-5" d="M183.16,49.77l-.32-1.92a5.58,5.58,0,0,1-4.51,2.21c-3,0-4.42-1.75-4.42-4.75V37.1h4.78v7.63a1.58,1.58,0,0,0,1.61,1.8,1.94,1.94,0,0,0,2-2V37.1h4.78V49.77Z"/><path class="cls-5" d="M203.68,43.44c0,4.44-2.84,6.62-7.16,6.62s-7.13-2.18-7.13-6.62,2.81-6.63,7.13-6.63S203.68,39,203.68,43.44Zm-9.51-.68v1.37c0,1.68.67,2.69,2.35,2.69s2.38-1,2.38-2.69V42.76c0-1.68-.7-2.71-2.38-2.71S194.17,41.08,194.17,42.76Z"/><path class="cls-5" d="M218.12,37.87c0,3.26-4.1,4.22-4.1,5.49v.51h-4.11v-1.2c0-1.75,3.12-2.76,3.12-4.71a1.58,1.58,0,0,0-1.58-1.68c-1.3,0-1.56,1-1.56,2,0,.22,0,.43,0,.65H205.5c0-.31-.07-.6-.07-.91,0-3.12,2.78-5.07,6.55-5.07S218.12,34.89,218.12,37.87Zm-8.49,11.9V45.33h4.75v4.44Z"/></g></g></svg>