<svg xmlns="http://www.w3.org/2000/svg" viewBox="0 0 1611.82 868.35"><defs><style>.cls-1{fill:#fff;}.cls-2{fill:#706f6f;}.cls-3{fill:#95c11f;}.cls-4{fill:#ffde00;}.cls-5{fill:#007518;}.cls-6{fill:#dd1e00;}.cls-7{fill:#91b589;}.cls-8{fill:#c1d289;}.cls-9{fill:#fff7bf;}.cls-10{fill:#dd7e6f;}.cls-11{fill:#f39200;}</style></defs><g id="Calque_2" data-name="Calque 2"><g id="Capa_1" data-name="Capa 1"><path class="cls-1" d="M1611.82,661.06c0,99.11-83.66,179.46-186.85,179.46H186.85C83.65,840.52,0,760.17,0,661.06V179.46C0,80.35,83.65,0,186.85,0H1425c103.19,0,186.85,80.35,186.85,179.46Z"/><path class="cls-2" d="M235.46,192.77H216.11L171.9,124.43v68.34H150.14V81.31h19.42l44.14,68.25V81.31h21.76Z"/><path class="cls-2" d="M341.76,154.57q0,17.53-11.66,28.34t-29.36,10.8q-17.69,0-29.11-10.64-11.91-11-11.9-28.5V81.31h21.76v72.48q0,9.24,5.09,14.87t14.16,5.64q9.24,0,14.33-5.64t5.09-14.87V81.31h21.6Z"/><path class="cls-2" d="M437.73,100.72H408.61v92.05H386.85V100.72H357.73V81.31h80Z"/><path class="cls-2" d="M539.8,192.77H514.41l-21.62-44.46H477.18v44.46H455.42V81.31h43.67q15.82,0,26,9.23t10.18,24.9q0,21.75-20.35,29.27Zm-26.3-77.33A13.59,13.59,0,0,0,509,104.71a16.47,16.47,0,0,0-11.27-4H477.18v29.43h20.51A16.59,16.59,0,0,0,509,126.24Q513.5,122.32,513.5,115.44Z"/><path class="cls-2" d="M579.56,192.77H557.8V81.31h21.76Z"/><path class="cls-2" d="M650,157.55H601.79v-19H650Z"/><path class="cls-2" d="M744.41,159.9q0,16.59-12.84,25.67-11.27,8.15-28.49,8.14-26,0-40.71-14.71l14.09-14.09q9.4,9.39,26.93,9.39,19.73,0,19.73-13.78,0-11.42-13.31-13.3l-13.46-1.92q-29.6-4.08-29.59-31.14,0-16.27,11.58-25.34,10.65-8.44,27.24-8.45,22.54,0,36,13L727.77,107q-8.16-7.67-22.92-7.67-7.38,0-11.93,3.29-5.34,3.75-5.34,10.8,0,10.48,13.78,12.37l13.15,1.88Q744.41,131.87,744.41,159.9Z"/><path class="cls-2" d="M843,158.49q-2.65,16.44-13.54,25.83T802,193.71q-17.85,0-30.06-12.21-7.37-7.35-9.71-19.26Q761,155.83,761,137q0-18.46,1.25-25.21,2.19-11.89,9.71-19.25A41.17,41.17,0,0,1,802,80.37q16.74,0,27.47,9.31T843,115.59H821q-3.76-15.81-18.79-15.81-9.85,0-15.18,7.36-4.23,6-4.23,29.9v10q0,3,.31,6.26,2,21,19.1,21,14.88,0,18.79-15.81Z"/><path class="cls-2" d="M940.41,137q0,17.07-1.41,25.2a34.42,34.42,0,0,1-9.71,19.26,41.17,41.17,0,0,1-30.06,12.21q-17.84,0-30.21-12.21-7.37-7.2-9.71-19.26-1.24-6.41-1.25-25.2,0-18.46,1.25-25.21Q861.5,99.94,869,92.58q12.36-12.21,30.21-12.21t30.06,12.21q7.37,7.36,9.71,19.25Q940.41,118.88,940.41,137Zm-21.76,0V128.9q0-4.7-.32-8.14-1.89-21-19.25-21-16.74,0-19.26,21V137q-.15,10.8.32,16.28,2,21,19.09,21a18,18,0,0,0,15.19-7.52Q918.65,161.16,918.65,137Z"/><path class="cls-2" d="M1047,192.77h-25.39L1000,148.31H984.4v44.46H962.64V81.31h43.68q15.79,0,26,9.23t10.18,24.9q0,21.75-20.35,29.27Zm-26.3-77.33a13.59,13.59,0,0,0-4.54-10.73,16.47,16.47,0,0,0-11.27-4H984.4v29.43h20.51a16.59,16.59,0,0,0,11.35-3.91Q1020.72,122.32,1020.72,115.44Z"/><path class="cls-2" d="M1138.44,192.77H1065V81.31h73.42v19.41h-51.66v26.14h44v19.42h-44v27.08h51.66Z"/><rect class="cls-3" x="366.12" y="307.36" width="293.64" height="472.1"/><rect class="cls-4" x="659.09" y="307.36" width="293.64" height="472.1"/><path class="cls-5" d="M366.79,307.36H167.66c-51.17,0-92.65,41.83-92.65,93.43V686c0,51.59,41.48,93.42,92.65,93.42H366.79Z"/><path class="cls-6" d="M1245,779.46h199.13c51.17,0,92.64-41.83,92.64-93.42V400.79c0-51.6-41.47-93.43-92.64-93.43H1245Z"/><path class="cls-7" d="M270.31,604.3H189.36L173,653.58H138.72L216.3,433.24h27.07L321,653.58h-34.1Zm-9.23-29.59-30.88-96.4h-.59l-30.88,96.4Z"/><path class="cls-8" d="M443.5,433.24h82.71q31.49.3,47.29,16.31,16,16.18,16,42.78a52.13,52.13,0,0,1-6.29,26,42.33,42.33,0,0,1-9.66,11.19A69.58,69.58,0,0,1,558,539.63v.61q17.46,4.68,26.42,18.89A63.19,63.19,0,0,1,592.79,591q-.3,28.57-17.29,45.19-16.85,17.38-42,17.38h-90Zm32.31,29.6V526.2h46.73q17.73,0,26.08-9.58,8.49-8.81,8.5-22.18t-8.5-22.63q-8.34-8.65-26.08-9Zm0,92.95v66.37H525.7q18-.3,26.41-10.15a34.14,34.14,0,0,0,8.36-23,34.54,34.54,0,0,0-8.36-23.34q-8.37-9.55-26.41-9.85Z"/><path class="cls-9" d="M871.82,592q-7,30.63-26.8,47.07-20.35,16.3-48.17,16.3-25.19-.61-42-12.69Q737.72,631.07,730,615.8q-2.34-5-4.24-9.52a63.57,63.57,0,0,1-2.93-11.79q-2.19-13.29-2.19-51.08,0-38.38,2.2-51.38T730,471q7.75-15.27,24.88-27.2,16.83-12.09,42-12.4,30.9.31,50.36,18.87t24.59,46.33h-34.3a48.77,48.77,0,0,0-14.37-22.73q-10.86-8.92-26.39-9.23-11.43.3-19.65,4.69a41.26,41.26,0,0,0-13.49,11.36q-6.3,7.13-8.36,18.33-2.34,11.81-2.34,44.37t2.35,44.07q2.06,11.52,8.36,18.63a38.25,38.25,0,0,0,13.49,11.06q8.22,5,19.66,5,27.29,0,40.78-30.14Z"/><path class="cls-10" d="M1330.39,433.24h136.35v31.42h-104v63h88.81v29.6H1362.7v64.86h104v31.42H1330.39Z"/><path class="cls-1" d="M1102.31,868.35c-109.73,0-199-89.14-199-198.71V417.17c0-109.56,89.27-198.7,199-198.7s199,89.14,199,198.7V669.64C1301.31,779.21,1212,868.35,1102.31,868.35Z"/><path class="cls-11" d="M1274.44,669.64c0,94.52-77.06,171.14-172.13,171.14h0c-95.07,0-172.14-76.62-172.14-171.14V417.17c0-94.51,77.07-171.13,172.14-171.13h0c95.07,0,172.13,76.62,172.13,171.13Z"/><path class="cls-1" d="M1225.83,542.15q0,49.19-2.52,65.59-6.32,41.63-35.11,63.49t-71.69,21.87H1008.45V393.73h108.06q42.46,0,71.27,21.44t35.53,62.65Q1225.83,493.38,1225.83,542.15Zm-58.44,0V516.08q0-17.24-2.11-24.81-2.52-17.24-10.51-26.91-15.13-18.5-43.73-18.5h-44.15V641H1111q28.59,0,43.73-18.5,9.24-11.36,11.77-38.68Q1167.38,574.53,1167.39,542.15Z"/></g></g></svg>