<svg xmlns="http://www.w3.org/2000/svg" viewBox="0 0 1611.82 864.17"><defs><style>.cls-1{fill:#fff;}.cls-2{fill:#706f6f;}.cls-3{fill:#95c11f;}.cls-4{fill:#f39200;}.cls-5{fill:#007518;}.cls-6{fill:#dd1e00;}.cls-7{fill:#91b589;}.cls-8{fill:#c1d289;}.cls-9{fill:#f3c37a;}.cls-10{fill:#dd7e6f;}.cls-11{fill:#ffde00;}</style></defs><g id="Calque_2" data-name="Calque 2"><g id="Capa_1" data-name="Capa 1"><path class="cls-1" d="M1611.82,661.06c0,99.11-83.66,179.46-186.85,179.46H186.85C83.66,840.52,0,760.17,0,661.06V179.46C0,80.35,83.66,0,186.85,0H1425c103.19,0,186.85,80.35,186.85,179.46Z"/><path class="cls-2" d="M235.47,192.77H216.11l-44.2-68.34v68.34H150.14V81.31h19.42l44.14,68.25V81.31h21.77Z"/><path class="cls-2" d="M341.76,154.57q0,17.53-11.66,28.34t-29.35,10.8q-17.7,0-29.12-10.64-11.89-11-11.9-28.5V81.31h21.76v72.48q0,9.24,5.09,14.87t14.17,5.64q9.22,0,14.32-5.64t5.09-14.87V81.31h21.6Z"/><path class="cls-2" d="M437.73,100.72H408.61v92.05H386.85V100.72H357.73V81.31h80Z"/><path class="cls-2" d="M539.8,192.77H514.41L492.8,148.31H477.18v44.46H455.42V81.31H499.1q15.81,0,26,9.23t10.18,24.9q0,21.75-20.35,29.27Zm-26.3-77.33A13.56,13.56,0,0,0,509,104.71a16.47,16.47,0,0,0-11.27-4H477.18v29.43h20.51A16.59,16.59,0,0,0,509,126.24Q513.5,122.32,513.5,115.44Z"/><path class="cls-2" d="M579.56,192.77H557.8V81.31h21.76Z"/><path class="cls-2" d="M650,157.55H601.79v-19H650Z"/><path class="cls-2" d="M744.41,159.9q0,16.59-12.84,25.67-11.27,8.15-28.49,8.14-26,0-40.7-14.71l14.09-14.09q9.39,9.39,26.92,9.39,19.73,0,19.73-13.78,0-11.42-13.31-13.3l-13.46-1.93q-29.6-4.06-29.59-31.13,0-16.27,11.58-25.34,10.65-8.44,27.25-8.45,22.53,0,36,13L727.78,107q-8.17-7.67-22.93-7.67-7.38,0-11.93,3.29-5.34,3.75-5.34,10.8,0,10.48,13.78,12.37l13.15,1.88Q744.41,131.87,744.41,159.9Z"/><path class="cls-2" d="M843,158.49q-2.67,16.44-13.55,25.83T802,193.71q-17.85,0-30.06-12.21-7.37-7.35-9.71-19.26Q761,155.83,761,137q0-18.46,1.25-25.21,2.19-11.89,9.71-19.25A41.17,41.17,0,0,1,802,80.37q16.76,0,27.47,9.31T843,115.59H821q-3.75-15.81-18.78-15.81-9.87,0-15.19,7.36-4.23,6-4.23,29.9v10q0,3,.32,6.26,2,21,19.1,21,14.87,0,18.78-15.81Z"/><path class="cls-2" d="M940.41,137q0,17.07-1.41,25.2a34.36,34.36,0,0,1-9.71,19.26,41.17,41.17,0,0,1-30,12.21q-17.85,0-30.22-12.21-7.37-7.2-9.7-19.26-1.26-6.41-1.26-25.2,0-18.46,1.26-25.21,2.19-11.89,9.7-19.25,12.38-12.21,30.22-12.21t30,12.21q7.37,7.36,9.71,19.25Q940.41,118.88,940.41,137Zm-21.76,0V128.9c0-3.13-.11-5.85-.32-8.14q-1.89-21-19.25-21-16.74,0-19.26,21V137q-.15,10.8.32,16.28,2,21,19.1,21a18,18,0,0,0,15.18-7.52Q918.65,161.16,918.65,137Z"/><path class="cls-2" d="M1047,192.77h-25.39L1000,148.31H984.4v44.46H962.64V81.31h43.68q15.81,0,26,9.23t10.18,24.9q0,21.75-20.35,29.27Zm-26.3-77.33a13.56,13.56,0,0,0-4.54-10.73,16.47,16.47,0,0,0-11.27-4H984.4v29.43h20.51a16.59,16.59,0,0,0,11.35-3.91Q1020.72,122.32,1020.72,115.44Z"/><path class="cls-2" d="M1138.45,192.77H1065V81.31h73.43v19.41h-51.67v26.14h44v19.42h-44v27.08h51.67Z"/><rect class="cls-3" x="367.76" y="303.19" width="293.64" height="472.1"/><rect class="cls-4" x="953.71" y="303.19" width="293.64" height="472.1"/><path class="cls-5" d="M368.44,303.19H169.3c-51.16,0-92.64,41.82-92.64,93.42V681.86c0,51.6,41.48,93.43,92.64,93.43H368.44Z"/><path class="cls-6" d="M1246.68,775.29h199.13c51.16,0,92.64-41.83,92.64-93.43V396.61c0-51.6-41.48-93.42-92.64-93.42H1246.68Z"/><path class="cls-7" d="M272,600.13H191l-16.4,49.28H140.36l77.58-220.35H245L322.6,649.41H288.49Zm-9.23-29.6-30.88-96.39h-.59l-30.88,96.39Z"/><path class="cls-8" d="M422.07,429.06h82.72q31.47.3,47.29,16.32,16,16.19,16,42.77a52.14,52.14,0,0,1-6.29,26,42.3,42.3,0,0,1-9.66,11.18,69.44,69.44,0,0,1-15.52,10.13v.6Q554,540.76,563,555a63.29,63.29,0,0,1,8.36,31.89q-.29,28.56-17.29,45.19-16.85,17.38-42,17.38h-90Zm32.32,29.61V522h46.73q17.73,0,26.08-9.57,8.49-8.81,8.5-22.18a32.31,32.31,0,0,0-8.5-22.64q-8.36-8.65-26.08-9Zm0,92.94V618h49.89q18-.3,26.41-10.15a34.17,34.17,0,0,0,8.36-23,34.53,34.53,0,0,0-8.36-23.33q-8.37-9.56-26.41-9.86Z"/><path class="cls-9" d="M1045.91,429.06h74.68q43.35.3,65,37.18a67.71,67.71,0,0,1,9.8,26q1.6,13.61,1.61,47,0,35.52-2.49,49.57A57.36,57.36,0,0,1,1191,601.5a119,119,0,0,1-6,11.34A75.45,75.45,0,0,1,1159,638.53q-16.54,10.89-40.56,10.88h-72.48ZM1078.22,618h38.7q27.25,0,39.57-19.23,5.43-7.12,6.89-18,1.32-10.74,1.32-40.28,0-28.77-1.32-41.2-1.76-12.42-8.35-20.13-13.48-19.23-38.11-18.64h-38.7Z"/><path class="cls-10" d="M1322.15,429.06H1458.5v31.42h-104v63h88.8v29.6h-88.8V618h104v31.42H1322.15Z"/><path class="cls-1" d="M804,864.17c-109.73,0-199-89.13-199-198.7V413c0-109.57,89.27-198.7,199-198.7s199,89.13,199,198.7V665.47C1003,775,913.74,864.17,804,864.17Z"/><path class="cls-11" d="M978.43,665.47c0,94.52-77.07,171.14-172.14,171.14h0c-95.06,0-172.13-76.62-172.13-171.14V413c0-94.52,77.07-171.14,172.13-171.14h0c95.07,0,172.14,76.62,172.14,171.14Z"/><path class="cls-1" d="M915.71,596.84q-7.15,44.14-36.37,69.38t-73.79,25.22q-47.94,0-80.73-32.79-19.77-19.75-26.07-51.72-3.37-17.23-3.36-67.7,0-49.61,3.36-67.69,5.88-31.95,26.07-51.72Q758,387,805.55,387q45,0,73.79,25t36.37,69.59H856.42Q846.34,439.17,806,439.16q-26.49,0-40.79,19.77-11.35,16-11.35,80.3v26.91q0,8,.84,16.82,5.46,56.35,51.3,56.35,39.93,0,50.45-42.47Z"/></g></g></svg>