<svg xmlns="http://www.w3.org/2000/svg" viewBox="0 0 1611.82 887.03"><defs><style>.cls-1{fill:#fff;}.cls-2{fill:#706f6f;}.cls-3{fill:#ffde00;}.cls-4{fill:#f39200;}.cls-5{fill:#007518;}.cls-6{fill:#dd1e00;}.cls-7{fill:#91b589;}.cls-8{fill:#fff7bf;}.cls-9{fill:#f3c37a;}.cls-10{fill:#dd7e6f;}.cls-11{fill:#95c11f;}</style></defs><g id="Calque_2" data-name="Calque 2"><g id="Capa_1" data-name="Capa 1"><path class="cls-1" d="M1611.82,661.06c0,99.11-83.66,179.46-186.85,179.46H186.85C83.65,840.52,0,760.17,0,661.06V179.46C0,80.35,83.65,0,186.85,0H1425c103.19,0,186.85,80.35,186.85,179.46Z"/><path class="cls-2" d="M235.46,192.77H216.11L171.9,124.43v68.34H150.14V81.31h19.41l44.15,68.26V81.31h21.76Z"/><path class="cls-2" d="M341.76,154.57q0,17.53-11.66,28.34t-29.36,10.8q-17.69,0-29.11-10.64-11.91-11-11.9-28.5V81.31h21.76v72.48q0,9.24,5.09,14.87t14.16,5.64q9.24,0,14.33-5.64t5.09-14.87V81.31h21.6Z"/><path class="cls-2" d="M437.73,100.72H408.61v92.05H386.85V100.72H357.73V81.31h80Z"/><path class="cls-2" d="M539.8,192.77H514.41l-21.62-44.46H477.18v44.46H455.42V81.31h43.67q15.81,0,26,9.23t10.18,24.9q0,21.75-20.35,29.27Zm-26.3-77.33A13.59,13.59,0,0,0,509,104.71a16.47,16.47,0,0,0-11.27-4H477.18v29.43h20.51A16.59,16.59,0,0,0,509,126.24Q513.5,122.32,513.5,115.44Z"/><path class="cls-2" d="M579.56,192.77H557.8V81.31h21.76Z"/><path class="cls-2" d="M650,157.55H601.79V138.61H650Z"/><path class="cls-2" d="M744.41,159.9q0,16.59-12.84,25.67-11.27,8.15-28.49,8.14-26,0-40.7-14.71l14.08-14.09q9.4,9.39,26.93,9.39,19.73,0,19.73-13.77,0-11.43-13.31-13.31l-13.46-1.92q-29.6-4.06-29.59-31.14,0-16.26,11.58-25.34,10.65-8.44,27.24-8.45,22.54,0,36,13L727.77,107q-8.16-7.67-22.92-7.67-7.38,0-11.93,3.29-5.34,3.75-5.34,10.8,0,10.5,13.78,12.37l13.15,1.88Q744.41,131.88,744.41,159.9Z"/><path class="cls-2" d="M843,158.49q-2.65,16.44-13.54,25.83T802,193.71q-17.85,0-30.06-12.21-7.37-7.35-9.71-19.25Q761,155.83,761,137q0-18.46,1.25-25.2,2.19-11.9,9.71-19.26A41.17,41.17,0,0,1,802,80.37q16.74,0,27.47,9.31T843,115.59H821q-3.76-15.81-18.79-15.81-9.85,0-15.18,7.36-4.23,6-4.23,29.9v10a62.66,62.66,0,0,0,.32,6.26q2,21,19.09,21,14.88,0,18.79-15.81Z"/><path class="cls-2" d="M940.41,137q0,17.07-1.41,25.21a34.36,34.36,0,0,1-9.71,19.25,41.17,41.17,0,0,1-30,12.21q-17.85,0-30.22-12.21-7.37-7.2-9.7-19.25-1.26-6.42-1.26-25.21,0-18.46,1.26-25.2,2.19-11.9,9.7-19.26,12.36-12.21,30.22-12.21t30,12.21q7.37,7.36,9.71,19.26Q940.41,118.88,940.41,137Zm-21.76,0V128.9q0-4.7-.32-8.14-1.89-21-19.25-21-16.74,0-19.26,21V137q-.15,10.8.32,16.28,2,21,19.1,21a18,18,0,0,0,15.18-7.51Q918.65,161.15,918.65,137Z"/><path class="cls-2" d="M1047,192.77h-25.39L1000,148.31H984.4v44.46H962.64V81.31h43.68q15.81,0,26,9.23t10.18,24.9q0,21.75-20.35,29.27Zm-26.3-77.33a13.59,13.59,0,0,0-4.54-10.73,16.47,16.47,0,0,0-11.27-4H984.4v29.43h20.51a16.59,16.59,0,0,0,11.35-3.91Q1020.72,122.32,1020.72,115.44Z"/><path class="cls-2" d="M1138.44,192.77H1065V81.31h73.42v19.41h-51.66v26.14h44v19.42h-44v27.08h51.66Z"/><rect class="cls-3" x="659.09" y="306.17" width="293.64" height="472.1"/><rect class="cls-4" x="952.06" y="306.17" width="293.64" height="472.1"/><path class="cls-5" d="M366.79,306.17H167.66C116.49,306.17,75,348,75,399.6V684.85c0,51.59,41.48,93.42,92.65,93.42H366.79Z"/><path class="cls-6" d="M1245,778.27h199.13c51.16,0,92.64-41.83,92.64-93.42V399.6c0-51.6-41.48-93.43-92.64-93.43H1245Z"/><path class="cls-7" d="M252.18,603.11h-81l-16.39,49.28H120.59l77.58-220.34h27.07l77.58,220.34h-34.1ZM243,573.52l-30.89-96.4h-.59l-30.88,96.4Z"/><path class="cls-8" d="M903.13,590.84q-7,30.63-26.8,47.07-20.36,16.3-48.18,16.3-25.17-.6-42-12.69Q769,629.88,761.28,614.61q-2.34-5-4.24-9.52a63.57,63.57,0,0,1-2.93-11.79q-2.19-13.29-2.19-51.08,0-38.39,2.19-51.38t7.17-21q7.77-15.27,24.89-27.2,16.83-12.09,42-12.4,30.89.31,50.36,18.87t24.59,46.32h-34.3a48.78,48.78,0,0,0-14.38-22.71q-10.85-8.94-26.38-9.24-11.45.3-19.65,4.69a41.26,41.26,0,0,0-13.49,11.36q-6.3,7.13-8.36,18.33-2.34,11.81-2.34,44.37t2.35,44.07q2,11.52,8.36,18.63A38.15,38.15,0,0,0,808.43,616q8.22,5,19.66,5,27.28,0,40.77-30.13Z"/><path class="cls-9" d="M1026.14,432.05h74.68q43.34.3,65,37.17a67.59,67.59,0,0,1,9.8,26q1.61,13.61,1.61,47,0,35.52-2.49,49.57a57.31,57.31,0,0,1-3.51,12.7,118,118,0,0,1-6,11.33,75.39,75.39,0,0,1-26.06,25.7q-16.55,10.88-40.56,10.87h-72.47ZM1058.45,621h38.69q27.27,0,39.57-19.23,5.43-7.11,6.89-18,1.32-10.76,1.32-40.29,0-28.77-1.32-41.19-1.75-12.42-8.35-20.14-13.49-19.23-38.11-18.63h-38.69Z"/><path class="cls-10" d="M1320.5,432.05h136.35v31.42h-104v63h88.81v29.59h-88.81V621h104v31.42H1320.5Z"/><path class="cls-1" d="M525.54,887c-109.73,0-199-94.59-199-210.85V408.27c0-116.27,89.27-210.86,199-210.86s199,94.59,199,210.86V676.18C724.54,792.44,635.27,887,525.54,887Z"/><path class="cls-11" d="M700,676.18c0,100.29-77.07,181.6-172.14,181.6h0c-95.07,0-172.13-81.31-172.13-181.6V408.27c0-100.3,77.06-181.61,172.13-181.61h0C622.89,226.66,700,308,700,408.27Z"/><path class="cls-1" d="M642.32,605.71q0,40.37-25.44,63.28t-66.23,22.92H425.36V392.54H545.61q40.77,0,66.64,21.86t25.86,62.23q0,42.89-37,61.81Q642.32,557.35,642.32,605.71ZM579.67,479.15q0-16.39-10.94-25.44t-27.75-9H483.8v69H541q17.24,0,28-8.83T579.67,479.15Zm4.2,123.41q0-16.9-11.14-26.85t-28-9.94h-61v74h61q17.65,0,28.38-9.72T583.87,602.56Z"/></g></g></svg>