<svg xmlns="http://www.w3.org/2000/svg" viewBox="0 0 1611.82 869.96"><defs><style>.cls-1{fill:#fff;}.cls-2{fill:#706f6f;}.cls-3{fill:#95c11f;}.cls-4{fill:#ffde00;}.cls-5{fill:#f39200;}.cls-6{fill:#007518;}.cls-7{fill:#91b589;}.cls-8{fill:#c1d289;}.cls-9{fill:#fff7bf;}.cls-10{fill:#f3c37a;}.cls-11{fill:#dd1e00;}</style></defs><g id="Calque_2" data-name="Calque 2"><g id="Capa_1" data-name="Capa 1"><path class="cls-1" d="M1611.82,661.06c0,99.11-83.66,179.46-186.85,179.46H186.85C83.65,840.52,0,760.17,0,661.06V179.46C0,80.35,83.65,0,186.85,0H1425c103.19,0,186.85,80.35,186.85,179.46Z"/><path class="cls-2" d="M235.46,192.77H216.11l-44.2-68.34v68.34H150.14V81.31h19.42l44.14,68.25V81.31h21.76Z"/><path class="cls-2" d="M341.76,154.57q0,17.53-11.66,28.34t-29.35,10.8q-17.7,0-29.12-10.64-11.89-11-11.9-28.5V81.31h21.76v72.48q0,9.24,5.09,14.87t14.17,5.64q9.22,0,14.32-5.64t5.09-14.87V81.31h21.6Z"/><path class="cls-2" d="M437.73,100.72H408.61v92.05H386.85V100.72H357.73V81.31h80Z"/><path class="cls-2" d="M539.8,192.77H514.41l-21.62-44.46H477.18v44.46H455.42V81.31H499.1q15.81,0,26,9.23t10.18,24.9q0,21.75-20.35,29.27Zm-26.3-77.33A13.56,13.56,0,0,0,509,104.71a16.47,16.47,0,0,0-11.27-4H477.18v29.43h20.51A16.59,16.59,0,0,0,509,126.24Q513.5,122.32,513.5,115.44Z"/><path class="cls-2" d="M579.56,192.77H557.8V81.31h21.76Z"/><path class="cls-2" d="M650,157.55H601.79V138.61H650Z"/><path class="cls-2" d="M744.41,159.9q0,16.59-12.84,25.67-11.27,8.15-28.49,8.14-26,0-40.7-14.71l14.09-14.09q9.39,9.39,26.92,9.39,19.73,0,19.73-13.77,0-11.43-13.31-13.31l-13.46-1.92q-29.6-4.06-29.59-31.14,0-16.26,11.59-25.34,10.64-8.44,27.23-8.45,22.54,0,36,13L727.78,107q-8.17-7.67-22.93-7.67-7.38,0-11.93,3.29-5.34,3.75-5.34,10.8,0,10.48,13.78,12.37l13.15,1.88Q744.41,131.87,744.41,159.9Z"/><path class="cls-2" d="M843,158.49q-2.67,16.44-13.55,25.83T802,193.71q-17.85,0-30.06-12.21-7.37-7.35-9.7-19.25Q761,155.83,761,137q0-18.46,1.26-25.21,2.19-11.88,9.7-19.25A41.17,41.17,0,0,1,802,80.37q16.76,0,27.47,9.31T843,115.59H821q-3.75-15.81-18.78-15.81-9.87,0-15.19,7.36-4.23,6-4.23,29.9v10q0,3,.32,6.26,2,21,19.1,21,14.87,0,18.78-15.81Z"/><path class="cls-2" d="M940.41,137q0,17.07-1.41,25.21a34.41,34.41,0,0,1-9.7,19.25,41.21,41.21,0,0,1-30.06,12.21q-17.85,0-30.22-12.21-7.35-7.2-9.7-19.25-1.26-6.42-1.26-25.21,0-18.46,1.26-25.21,2.19-11.88,9.7-19.25,12.38-12.21,30.22-12.21T929.3,92.58q7.35,7.36,9.7,19.25Q940.41,118.88,940.41,137Zm-21.76,0V128.9q0-4.7-.32-8.14-1.89-21-19.25-21-16.74,0-19.25,21V137q-.17,10.8.31,16.28,2,21,19.1,21a18,18,0,0,0,15.18-7.51Q918.65,161.15,918.65,137Z"/><path class="cls-2" d="M1047,192.77h-25.39L1000,148.31H984.4v44.46H962.64V81.31h43.68q15.81,0,26,9.23t10.17,24.9q0,21.75-20.35,29.27Zm-26.3-77.33a13.56,13.56,0,0,0-4.54-10.73,16.46,16.46,0,0,0-11.27-4H984.4v29.43h20.51a16.59,16.59,0,0,0,11.35-3.91Q1020.72,122.32,1020.72,115.44Z"/><path class="cls-2" d="M1138.45,192.77H1065V81.31h73.43v19.41h-51.66v26.14h44v19.42h-44v27.08h51.66Z"/><rect class="cls-3" x="363.01" y="308.98" width="293.64" height="472.11"/><rect class="cls-4" x="655.98" y="308.98" width="293.64" height="472.11"/><rect class="cls-5" x="948.95" y="308.98" width="293.64" height="472.11"/><path class="cls-6" d="M363.68,309H164.55c-51.17,0-92.64,41.82-92.64,93.42V687.65c0,51.6,41.47,93.43,92.64,93.43H363.68Z"/><path class="cls-7" d="M267.2,605.91H186.25L169.86,655.2H135.61l77.58-220.35h27.08L317.84,655.2h-34.1ZM258,576.32l-30.89-96.39h-.58l-30.89,96.39Z"/><path class="cls-8" d="M440.39,434.85h82.72q31.47.31,47.29,16.32,16,16.18,16,42.77a52.15,52.15,0,0,1-6.3,26,42,42,0,0,1-9.66,11.19,69.46,69.46,0,0,1-15.51,10.12v.6q17.48,4.7,26.43,18.89a63.35,63.35,0,0,1,8.36,31.89q-.3,28.56-17.29,45.19-16.85,17.38-42,17.38h-90Zm32.31,29.61v63.35h46.74q17.73,0,26.08-9.57,8.49-8.81,8.49-22.18t-8.49-22.64q-8.35-8.66-26.08-9Zm0,92.95v66.37h49.89q18-.3,26.41-10.15a34.13,34.13,0,0,0,8.37-23A34.49,34.49,0,0,0,549,567.26q-8.36-9.56-26.41-9.85Z"/><path class="cls-9" d="M881.9,593.64q-7,30.65-26.8,47.08Q834.74,657,806.92,657q-25.17-.62-42-12.7-17.13-11.62-24.88-26.9-2.34-5-4.24-9.52a63.57,63.57,0,0,1-2.93-11.79q-2.19-13.29-2.2-51.08,0-38.38,2.2-51.38t7.17-21q7.76-15.25,24.89-27.2,16.83-12.07,42-12.39,30.88.31,50.36,18.86,19.47,18.71,24.59,46.33H847.59a48.74,48.74,0,0,0-14.37-22.72q-10.85-8.92-26.38-9.24-11.45.32-19.65,4.7a41.14,41.14,0,0,0-13.49,11.36q-6.3,7.13-8.36,18.33Q763,512.46,763,545t2.34,44.07q2.05,11.52,8.37,18.63a38.12,38.12,0,0,0,13.49,11q8.22,5,19.65,5,27.28,0,40.78-30.14Z"/><path class="cls-10" d="M1013.14,434.85h74.68q43.35.31,65,37.18a67.61,67.61,0,0,1,9.8,26q1.6,13.61,1.61,47,0,35.52-2.49,49.57a57.22,57.22,0,0,1-3.51,12.69,121.55,121.55,0,0,1-6,11.34,75.45,75.45,0,0,1-26.06,25.69q-16.54,10.88-40.56,10.88h-72.48Zm32.32,188.93h38.69q27.27,0,39.57-19.23,5.43-7.12,6.9-18,1.31-10.74,1.31-40.28,0-28.77-1.31-41.2-1.77-12.41-8.36-20.13-13.48-19.23-38.11-18.64h-38.69Z"/><path class="cls-1" d="M1394.35,870c-109.73,0-199-89.13-199-198.7V418.79c0-109.57,89.27-198.7,199-198.7s199,89.13,199,198.7V671.26C1593.35,780.83,1504.08,870,1394.35,870Z"/><path class="cls-11" d="M1566.49,671.26c0,94.52-77.07,171.14-172.14,171.14h0c-95.07,0-172.14-76.62-172.14-171.14V418.79c0-94.52,77.07-171.14,172.14-171.14h0c95.07,0,172.14,76.62,172.14,171.14Z"/><path class="cls-1" d="M1493,694.71h-197.2V395.34H1493v52.14H1354.2V517.7h118.15v52.13H1354.2v72.74H1493Z"/></g></g></svg>