<svg xmlns="http://www.w3.org/2000/svg" viewBox="0 0 1611.82 867.36"><defs><style>.cls-1{fill:#fff;}.cls-2{fill:#706f6f;}.cls-3{fill:#95c11f;}.cls-4{fill:#ffde00;}.cls-5{fill:#f39200;}.cls-6{fill:#dd1e00;}.cls-7{fill:#c1d289;}.cls-8{fill:#fff7bf;}.cls-9{fill:#f3c37a;}.cls-10{fill:#dd7e6f;}.cls-11{fill:#007518;}</style></defs><g id="Calque_2" data-name="Calque 2"><g id="Capa_1" data-name="Capa 1"><path class="cls-1" d="M1611.82,661.06c0,99.11-83.66,179.46-186.85,179.46H186.85C83.65,840.52,0,760.17,0,661.06V179.46C0,80.35,83.65,0,186.85,0H1425c103.19,0,186.85,80.35,186.85,179.46Z"/><path class="cls-2" d="M235.46,192.77H216.11L171.9,124.43v68.34H150.14V81.31h19.42l44.14,68.25V81.31h21.76Z"/><path class="cls-2" d="M341.76,154.57q0,17.53-11.66,28.34t-29.35,10.8q-17.7,0-29.12-10.64-11.91-11-11.9-28.5V81.31h21.76v72.48q0,9.24,5.09,14.87t14.17,5.64q9.22,0,14.32-5.64t5.09-14.87V81.31h21.6Z"/><path class="cls-2" d="M437.73,100.72H408.61v92.05H386.85V100.72H357.73V81.31h80Z"/><path class="cls-2" d="M539.8,192.77H514.41L492.8,148.31H477.18v44.46H455.42V81.31H499.1q15.81,0,26,9.23t10.18,24.9q0,21.75-20.35,29.27Zm-26.3-77.33A13.59,13.59,0,0,0,509,104.71a16.47,16.47,0,0,0-11.27-4H477.18v29.43h20.51A16.59,16.59,0,0,0,509,126.24Q513.5,122.32,513.5,115.44Z"/><path class="cls-2" d="M579.56,192.77H557.8V81.31h21.76Z"/><path class="cls-2" d="M650,157.55H601.79V138.61H650Z"/><path class="cls-2" d="M744.41,159.9q0,16.59-12.84,25.67-11.27,8.15-28.49,8.14-26,0-40.7-14.71l14.09-14.09q9.39,9.39,26.92,9.39,19.73,0,19.73-13.77,0-11.43-13.31-13.31l-13.46-1.92q-29.6-4.06-29.59-31.14,0-16.26,11.58-25.34,10.65-8.44,27.24-8.45,22.54,0,36,13L727.78,107q-8.17-7.67-22.93-7.67-7.38,0-11.93,3.29-5.34,3.75-5.34,10.8,0,10.48,13.78,12.37l13.15,1.88Q744.41,131.87,744.41,159.9Z"/><path class="cls-2" d="M843,158.49q-2.65,16.44-13.54,25.83T802,193.71q-17.85,0-30.06-12.21-7.37-7.35-9.71-19.25Q761,155.83,761,137q0-18.46,1.25-25.2,2.19-11.9,9.71-19.26A41.17,41.17,0,0,1,802,80.37q16.74,0,27.47,9.31T843,115.59H821q-3.75-15.81-18.79-15.81-9.85,0-15.18,7.36-4.23,6-4.23,29.9v10q0,3,.32,6.26,2,21,19.09,21,14.88,0,18.79-15.81Z"/><path class="cls-2" d="M940.41,137q0,17.07-1.41,25.21a34.36,34.36,0,0,1-9.71,19.25,41.17,41.17,0,0,1-30,12.21q-17.85,0-30.22-12.21-7.37-7.2-9.7-19.25-1.26-6.42-1.26-25.21,0-18.46,1.26-25.2,2.19-11.9,9.7-19.26,12.36-12.21,30.22-12.21t30,12.21q7.37,7.36,9.71,19.26Q940.41,118.88,940.41,137Zm-21.76,0V128.9q0-4.7-.32-8.14-1.89-21-19.25-21-16.74,0-19.26,21V137q-.15,10.8.32,16.28,2,21,19.1,21a18,18,0,0,0,15.18-7.51Q918.65,161.15,918.65,137Z"/><path class="cls-2" d="M1047,192.77h-25.39L1000,148.31H984.4v44.46H962.64V81.31h43.68q15.81,0,26,9.23t10.18,24.9q0,21.75-20.35,29.27Zm-26.3-77.33a13.56,13.56,0,0,0-4.54-10.73,16.47,16.47,0,0,0-11.27-4H984.4v29.43h20.51a16.59,16.59,0,0,0,11.35-3.91Q1020.72,122.32,1020.72,115.44Z"/><path class="cls-2" d="M1138.44,192.77H1065V81.31h73.42v19.41h-51.66v26.14h44v19.42h-44v27.08h51.66Z"/><rect class="cls-3" x="379.18" y="306.37" width="293.64" height="472.1"/><rect class="cls-4" x="672.15" y="306.37" width="293.64" height="472.1"/><rect class="cls-5" x="965.12" y="306.37" width="293.64" height="472.1"/><path class="cls-6" d="M1258.09,778.48h199.13c51.17,0,92.65-41.83,92.65-93.43V399.8c0-51.6-41.48-93.43-92.65-93.43H1258.09Z"/><path class="cls-7" d="M456.56,432.25h82.72q31.47.3,47.28,16.32,16,16.17,16,42.77a52,52,0,0,1-6.29,26,41.82,41.82,0,0,1-9.66,11.19,69.59,69.59,0,0,1-15.51,10.13v.6q17.46,4.68,26.42,18.89A63.19,63.19,0,0,1,605.85,590q-.3,28.58-17.29,45.2-16.84,17.38-42,17.38H456.56Zm32.31,29.6v63.36h46.74q17.71,0,26.07-9.57,8.51-8.82,8.5-22.18t-8.5-22.64q-8.34-8.65-26.07-9Zm0,92.95v66.37h49.89q18-.28,26.41-10.15a34.08,34.08,0,0,0,8.37-23,34.5,34.5,0,0,0-8.37-23.34q-8.35-9.55-26.41-9.85Z"/><path class="cls-8" d="M898.07,591q-7,30.63-26.8,47.07-20.35,16.3-48.18,16.3-25.17-.6-42-12.69Q764,630.08,756.22,614.81q-2.34-5-4.24-9.52a63.65,63.65,0,0,1-2.93-11.78q-2.2-13.31-2.2-51.09,0-38.37,2.2-51.38t7.17-21q7.75-15.25,24.89-27.2,16.83-12.09,42-12.4,30.89.31,50.36,18.87t24.59,46.33H863.76a48.74,48.74,0,0,0-14.37-22.72Q838.55,464,823,463.67q-11.44.31-19.65,4.69a41.26,41.26,0,0,0-13.49,11.36q-6.3,7.13-8.36,18.33-2.34,11.82-2.34,44.37t2.34,44.08q2.06,11.5,8.37,18.63a38,38,0,0,0,13.49,11q8.22,5,19.65,5,27.29,0,40.78-30.14Z"/><path class="cls-9" d="M1039.2,432.25h74.68q43.33.3,65,37.18a67.65,67.65,0,0,1,9.8,26q1.6,13.6,1.6,47,0,35.52-2.49,49.57a56.77,56.77,0,0,1-3.51,12.7,116.86,116.86,0,0,1-6,11.33,75.3,75.3,0,0,1-26.06,25.7q-16.55,10.88-40.55,10.88H1039.2Zm32.31,188.92h38.7q27.26,0,39.57-19.23,5.43-7.11,6.89-18,1.32-10.75,1.32-40.28,0-28.78-1.32-41.2-1.76-12.42-8.35-20.14-13.5-19.23-38.11-18.63h-38.7Z"/><path class="cls-10" d="M1333.57,432.25h136.34v31.42h-104v63.05h88.8v29.59h-88.8v64.86h104V652.6H1333.57Z"/><path class="cls-1" d="M214.8,867.36c-109.72,0-199-89.14-199-198.7V416.19c0-109.57,89.27-198.71,199-198.71s199,89.14,199,198.71V668.66C413.8,778.22,324.53,867.36,214.8,867.36Z"/><path class="cls-11" d="M389.23,668.66c0,94.52-77.07,171.14-172.14,171.14h0C122,839.8,45,763.18,45,668.66V416.19C45,321.67,122,245.05,217.09,245.05h0c95.07,0,172.14,76.62,172.14,171.14Z"/><path class="cls-1" d="M352.47,667.74h-61l-17.65-53H167.47l-18.08,53h-61l108.9-299.38h45.83ZM258.29,565.56l-36.58-108.9-37.85,108.9Z"/></g></g></svg>