<svg xmlns="http://www.w3.org/2000/svg" viewBox="0 0 231.56 231.56"><defs><style>.cls-1{fill:#fff;}</style></defs><g id="Calque_2" data-name="Calque 2"><g id="Layer_2" data-name="Layer 2"><rect width="231.56" height="231.56" rx="75.55"/><path class="cls-1" d="M74.06,127.89a3.05,3.05,0,0,0,4.45-2.22c.41-1.56,1.38-5.5,1.82-7.14.6-2.23.36-3-1.28-5-3.58-4.23-5.87-9.7-5.87-17.45C73.18,73.66,90,53.54,117,53.54c23.88,0,37,14.59,37,34.08,0,25.64-11.35,47.28-28.2,47.28-9.3,0-16.26-7.69-14-17.12,2.68-11.27,7.85-23.43,7.85-31.56,0-7.28-3.91-13.36-12-13.36-9.51,0-17.15,9.84-17.15,23A34.2,34.2,0,0,0,93.28,110s-9.73,41.24-11.44,48.46c-3.4,14.38-.51,32-.27,33.79a1.19,1.19,0,0,0,2.12.52c.88-1.15,12.2-15.14,16-29.11,1.09-4,6.26-24.44,6.26-24.44,3.09,5.89,12.12,11.08,21.72,11.08,28.6,0,48-26.06,48-60.95,0-26.38-22.34-50.95-56.3-50.95-42.26,0-63.56,30.3-63.56,55.56C55.85,109.22,61.64,122.83,74.06,127.89Z"/></g></g></svg>